<svg xmlns="http://www.w3.org/2000/svg" width="500" height="500" viewBox="0 0 500 500" version="1.1"><path d="M 157.530 168.392 C 153.782 173.834, 153.712 174.095, 154.916 178.115 C 155.795 181.046, 156.464 181.936, 157.223 181.177 C 157.811 180.589, 159.554 180.361, 161.098 180.670 C 163.488 181.148, 163.999 180.852, 164.546 178.672 C 164.899 177.265, 164.833 175.538, 164.398 174.835 C 163.963 174.131, 163.719 171.968, 163.856 170.028 C 163.993 168.088, 163.492 165.668, 162.743 164.650 C 161.479 162.933, 161.105 163.202, 157.530 168.392 M 254 186.920 C 251.525 187.280, 248.375 188.277, 247 189.137 C 245.625 189.996, 237.637 193.125, 229.250 196.090 C 217.095 200.386, 214 201.852, 214 203.312 C 214 206.448, 219.013 214, 221.095 214 C 223.376 214, 223.342 213.484, 221.472 219.783 C 220.103 224.392, 220.102 225.309, 221.465 228.571 L 222.987 232.213 229.844 223.357 C 233.615 218.485, 240.232 210.762, 244.547 206.192 C 252.801 197.454, 256.387 192.742, 257.986 188.538 C 258.516 187.142, 258.849 186.060, 258.725 186.134 C 258.601 186.207, 256.475 186.561, 254 186.920 M 140.639 210.134 C 134.015 216.037, 129.058 224.425, 131.613 225.405 C 136.076 227.118, 147.350 224.386, 150.748 220.768 L 152.878 218.500 150.115 212.260 C 148.596 208.828, 147.131 205.797, 146.859 205.525 C 146.587 205.253, 143.788 207.327, 140.639 210.134 M 165.170 216.413 C 162.146 220.624, 161.136 225.282, 162.765 227.500 C 163.169 228.050, 164.400 229.057, 165.500 229.737 C 172.346 233.972, 173.661 234.331, 182.644 234.415 C 190.308 234.486, 192.128 234.192, 193.894 232.595 C 196.354 230.370, 196.585 227.032, 194.552 223.100 C 192.683 219.485, 177.524 212, 172.073 212 C 168.804 212, 167.945 212.549, 165.170 216.413 M 466.934 223.850 C 464.422 225.897, 458.656 229.039, 454.119 230.832 C 447.118 233.598, 444.709 234.070, 438.185 233.950 C 433.958 233.872, 428.928 234.302, 427.007 234.904 C 425.085 235.507, 420.463 236, 416.734 236 C 410.181 236, 409.807 236.137, 405.478 240.127 C 400.689 244.541, 400.126 246.030, 402.500 248 C 405.800 250.739, 403.220 258.537, 398.800 259.182 C 396.900 259.459, 397.165 259.860, 400.849 262.291 C 403.176 263.825, 405.608 266.241, 406.254 267.658 C 407.297 269.948, 407.135 270.487, 404.796 272.499 C 402.855 274.168, 402.457 275.057, 403.282 275.882 C 403.897 276.497, 403.988 277, 403.484 277 C 402.980 277, 404.930 279.391, 407.816 282.314 L 413.064 287.627 410.553 291.327 L 408.041 295.028 410.771 294.398 C 415.770 293.244, 420.774 289.624, 439.457 273.643 C 461.191 255.052, 467.530 248.457, 469.034 242.875 C 469.628 240.666, 470.987 237.428, 472.054 235.680 C 473.969 232.539, 474.547 226.642, 473.370 222.250 C 473.038 221.012, 472.482 220.029, 472.133 220.064 C 471.785 220.100, 469.445 221.803, 466.934 223.850 M 105.571 237.571 C 104.831 240.521, 106.480 247.361, 108.257 248.711 C 112.511 251.943, 124.106 254.680, 139 255.968 C 158.429 257.647, 159.735 257.906, 163.104 260.741 C 165.954 263.139, 166.300 263.214, 167.187 261.631 C 168.081 260.032, 168.486 260.095, 172.506 262.450 C 174.898 263.853, 177.653 265, 178.626 265 C 179.600 265, 184.194 266.158, 188.836 267.574 C 193.477 268.990, 198.285 269.894, 199.520 269.584 C 200.755 269.274, 204.248 266.340, 207.282 263.062 C 211.990 257.977, 212.901 256.355, 213.502 251.988 C 213.889 249.174, 213.976 246.643, 213.696 246.362 C 213.415 246.082, 211.816 246.561, 210.143 247.426 C 206.336 249.395, 204.354 249.392, 195 247.406 C 190.875 246.531, 185.250 245.817, 182.500 245.820 C 179.750 245.824, 175.475 245.409, 173 244.898 C 155.063 241.197, 152.586 240.948, 140.142 241.599 C 126.004 242.338, 118.457 241.260, 110.850 237.417 L 106.200 235.068 105.571 237.571 M 382 297 C 382 297.550, 382.675 298, 383.500 298 C 384.325 298, 385 297.550, 385 297 C 385 296.450, 384.325 296, 383.500 296 C 382.675 296, 382 296.450, 382 297 M 365 359.723 C 364.175 360.033, 362.428 360.684, 361.118 361.169 C 358.815 362.022, 358.795 362.116, 360.523 364.025 C 361.506 365.111, 362.690 366, 363.155 366 C 364.565 366, 368 362.100, 368 360.500 C 368 358.927, 367.474 358.791, 365 359.723" stroke="none" fill="#8f8f89" fill-rule="evenodd"/><path d="M 153.582 157.304 C 149.397 162.790, 148.298 166.173, 142.618 191.048 C 140.863 198.731, 131.506 214.763, 126.623 218.450 C 124.906 219.748, 120.745 222.415, 117.377 224.378 C 110.617 228.318, 105.376 233.655, 104.383 237.609 C 103.568 240.857, 105.463 247.335, 107.755 249.131 C 109.313 250.354, 109.362 250.323, 108.208 248.847 C 106.223 246.307, 104.908 240.803, 105.561 237.771 L 106.150 235.042 110.825 237.404 C 118.457 241.260, 125.992 242.338, 140.142 241.599 C 152.586 240.948, 155.063 241.197, 173 244.898 C 175.475 245.409, 179.750 245.824, 182.500 245.820 C 185.250 245.817, 190.875 246.531, 195 247.406 C 204.354 249.392, 206.336 249.395, 210.143 247.426 C 211.816 246.561, 213.415 246.082, 213.696 246.362 C 213.976 246.643, 213.889 249.174, 213.502 251.988 C 212.901 256.355, 211.990 257.977, 207.282 263.062 C 204.248 266.340, 200.755 269.274, 199.520 269.584 C 198.285 269.894, 193.477 268.990, 188.836 267.574 C 184.194 266.158, 179.600 265, 178.626 265 C 177.653 265, 174.898 263.853, 172.506 262.450 C 168.415 260.053, 168.095 260.008, 167.151 261.694 C 166.214 263.368, 165.973 263.323, 163.508 261.008 L 160.869 258.528 163 263.514 C 164.430 266.859, 168.319 271.791, 174.816 278.500 C 180.142 284, 189.225 293.867, 195 300.427 C 207.916 315.098, 217.152 325.490, 220.986 329.668 C 225.147 334.202, 233.469 335.914, 238.762 333.324 C 246.526 329.525, 245.485 321.799, 235.817 311.464 C 232.464 307.879, 229.995 304.672, 230.330 304.337 C 230.665 304.002, 233.090 304.652, 235.720 305.781 C 238.349 306.911, 245 309.510, 250.500 311.556 C 256 313.603, 272.650 320.539, 287.500 326.970 C 302.350 333.402, 316.300 339.177, 318.500 339.805 C 320.700 340.434, 327 344.370, 332.500 348.552 C 342.722 356.326, 348.612 359.792, 355.250 361.941 C 357.313 362.609, 359 363.522, 359 363.971 C 359 364.419, 359.762 365.079, 360.694 365.436 C 362.193 366.011, 362.178 365.854, 360.562 364.068 C 358.572 361.870, 358.693 361.765, 365.750 359.566 C 368.988 358.558, 368.707 361.429, 365.250 364.687 C 362.973 366.833, 362.883 367.079, 364.727 366.116 C 367.505 364.667, 368.575 362.666, 369.474 357.236 C 370.035 353.853, 369.755 352.251, 368.124 349.486 C 365.745 345.454, 366.202 345.283, 372.141 347.978 C 374.538 349.066, 377.760 349.966, 379.300 349.978 C 388.207 350.048, 393.963 340.014, 389.179 332.758 C 387.002 329.457, 378.455 322.649, 367.244 315.287 C 362.703 312.305, 357.303 307.791, 355.244 305.256 C 353.185 302.720, 348.964 297.867, 345.864 294.471 C 340.512 288.607, 338.143 284.523, 339.377 283.289 C 340.106 282.561, 344.747 285.611, 348.299 289.153 C 351.593 292.438, 359.786 294.955, 375 297.356 C 388.612 299.505, 396.098 299.422, 403.500 297.039 C 406.800 295.977, 409.176 295.083, 408.780 295.054 C 408.384 295.024, 409.186 293.341, 410.562 291.314 L 413.064 287.627 407.816 282.314 C 404.930 279.391, 402.980 277, 403.484 277 C 403.988 277, 403.897 276.497, 403.282 275.882 C 402.457 275.057, 402.855 274.168, 404.796 272.499 C 407.135 270.487, 407.297 269.948, 406.254 267.658 C 405.608 266.241, 403.176 263.825, 400.849 262.291 C 397.165 259.860, 396.900 259.459, 398.800 259.182 C 403.220 258.537, 405.800 250.739, 402.500 248 C 400.126 246.030, 400.689 244.541, 405.478 240.127 C 409.807 236.137, 410.181 236, 416.734 236 C 420.463 236, 425.085 235.507, 427.007 234.904 C 428.928 234.302, 433.993 233.873, 438.263 233.952 C 445.020 234.077, 447.136 233.643, 454.592 230.603 C 459.304 228.682, 465.173 225.460, 467.634 223.443 C 470.096 221.426, 472.385 220.052, 472.723 220.389 C 473.060 220.726, 473.539 223.460, 473.789 226.464 C 474.145 230.762, 473.799 232.676, 472.163 235.448 C 471.020 237.385, 469.610 240.735, 469.029 242.892 C 467.574 248.295, 461.655 254.551, 442.177 271.273 C 420.187 290.151, 417.901 291.917, 413.358 293.537 C 411.230 294.295, 410.397 294.913, 411.500 294.914 C 415.200 294.918, 419.779 291.579, 441.558 273.003 C 461.702 255.821, 471 246.136, 471 242.337 C 471 241.602, 471.393 241, 471.874 241 C 473.078 241, 483 225.739, 483 223.888 C 483 223.065, 481.660 220.278, 480.022 217.696 C 475.910 211.211, 472.683 211.223, 464.671 217.751 C 455.406 225.300, 452.969 226.911, 449.118 228.033 C 442.958 229.826, 422.233 230.859, 406 230.181 C 382.511 229.200, 365.136 229.452, 358.760 230.865 C 355.437 231.602, 351.016 233.565, 348.260 235.527 C 345.642 237.392, 340.350 240.509, 336.500 242.454 C 332.650 244.400, 326.172 248.666, 322.104 251.935 C 311.655 260.331, 310.250 260.787, 302.667 258.238 C 299.275 257.097, 290.915 254.967, 284.089 253.505 C 269.549 250.390, 226.794 236.662, 225.037 234.544 C 224.372 233.743, 224.176 232.505, 224.603 231.794 C 226.828 228.077, 237.518 215.370, 245.483 206.975 C 250.603 201.578, 255.815 194.944, 257.510 191.668 C 260.435 186.011, 260.458 185.854, 258.559 184.443 C 255.801 182.393, 249.608 182.646, 234.596 185.421 C 212.694 189.469, 214.192 189.364, 213.824 186.877 C 213.403 184.034, 208.550 182.357, 195.396 180.509 C 182.304 178.670, 180.404 177.731, 177.274 171.551 C 173.787 164.665, 170.235 160.185, 165.600 156.826 C 160.293 152.981, 156.773 153.120, 153.582 157.304 M 157.530 168.392 C 153.782 173.834, 153.712 174.095, 154.916 178.115 C 155.795 181.046, 156.464 181.936, 157.223 181.177 C 157.811 180.589, 159.554 180.361, 161.098 180.670 C 163.488 181.148, 163.999 180.852, 164.546 178.672 C 164.899 177.265, 164.833 175.538, 164.398 174.835 C 163.963 174.131, 163.719 171.968, 163.856 170.028 C 163.993 168.088, 163.492 165.668, 162.743 164.650 C 161.479 162.933, 161.105 163.202, 157.530 168.392 M 254 186.920 C 251.525 187.280, 248.375 188.277, 247 189.137 C 245.625 189.996, 237.637 193.125, 229.250 196.090 C 217.095 200.386, 214 201.852, 214 203.312 C 214 206.448, 219.013 214, 221.095 214 C 223.376 214, 223.342 213.484, 221.472 219.783 C 220.103 224.392, 220.102 225.309, 221.465 228.571 L 222.987 232.213 229.844 223.357 C 233.615 218.485, 240.232 210.762, 244.547 206.192 C 252.801 197.454, 256.387 192.742, 257.986 188.538 C 258.516 187.142, 258.849 186.060, 258.725 186.134 C 258.601 186.207, 256.475 186.561, 254 186.920 M 140.639 210.134 C 134.015 216.037, 129.058 224.425, 131.613 225.405 C 136.076 227.118, 147.350 224.386, 150.748 220.768 L 152.878 218.500 150.115 212.260 C 148.596 208.828, 147.131 205.797, 146.859 205.525 C 146.587 205.253, 143.788 207.327, 140.639 210.134 M 165.170 216.413 C 162.146 220.624, 161.136 225.282, 162.765 227.500 C 163.169 228.050, 164.400 229.057, 165.500 229.737 C 172.346 233.972, 173.661 234.331, 182.644 234.415 C 190.308 234.486, 192.128 234.192, 193.894 232.595 C 196.354 230.370, 196.585 227.032, 194.552 223.100 C 192.683 219.485, 177.524 212, 172.073 212 C 168.804 212, 167.945 212.549, 165.170 216.413 M 111 250.831 C 111.825 251.341, 113.625 252.059, 115 252.427 C 116.737 252.892, 117.042 252.813, 116 252.169 C 115.175 251.659, 113.375 250.941, 112 250.573 C 110.263 250.108, 109.958 250.187, 111 250.831 M 127.762 255.707 C 129.006 255.946, 130.806 255.937, 131.762 255.687 C 132.718 255.437, 131.700 255.241, 129.500 255.252 C 127.300 255.263, 126.518 255.468, 127.762 255.707 M 137.264 256.718 C 138.784 256.947, 141.034 256.941, 142.264 256.704 C 143.494 256.467, 142.250 256.279, 139.500 256.286 C 136.750 256.294, 135.744 256.488, 137.264 256.718 M 382 297 C 382 297.550, 382.675 298, 383.500 298 C 384.325 298, 385 297.550, 385 297 C 385 296.450, 384.325 296, 383.500 296 C 382.675 296, 382 296.450, 382 297" stroke="none" fill="#1c1b1b" fill-rule="evenodd"/></svg>